<?xml version="1.0" encoding="utf-8"?>
<!-- Generator: Adobe Illustrator 18.1.1, SVG Export Plug-In . SVG Version: 6.00 Build 0)  -->
<svg version="1.1" id="Icons" xmlns="http://www.w3.org/2000/svg" xmlns:xlink="http://www.w3.org/1999/xlink" x="0px" y="0px"
	 viewBox="0 0 20 20" enable-background="new 0 0 20 20" xml:space="preserve">
<g>
	<path fill="#6C5E52" d="M9,13.5c-1.9,0.2-3.7-1.1-4.2-3C4.3,8.4,5.6,6.2,7.7,5.7c2-0.5,4,0.6,4.7,2.5c0.5-0.2,1.1-0.3,1.7-0.3
		c0.2,0,0.4,0,0.6,0c-0.1-0.3-0.2-0.7-0.2-1c0-0.2-0.2-0.3-0.4-0.2c-0.3,0.1-0.6,0.1-0.9,0.2c-0.1,0-0.1,0-0.2-0.1
		c-0.2-0.2-0.3-0.4-0.5-0.7c-0.1-0.1-0.1-0.1,0-0.2c0.2-0.3,0.3-0.5,0.5-0.8c0.1-0.2,0.1-0.3-0.1-0.4c-0.7-0.4-1.4-0.8-2-1.3
		c-0.2-0.1-0.3-0.1-0.4,0.1c-0.2,0.3-0.3,0.5-0.5,0.8c0,0.1-0.1,0.1-0.1,0.1C9.6,4.5,9.3,4.4,9,4.4c-0.1,0-0.1,0-0.1-0.1
		C8.9,4,8.8,3.7,8.7,3.4c0-0.2-0.2-0.3-0.4-0.2C7.6,3.4,6.8,3.5,6,3.7c-0.2,0-0.3,0.2-0.2,0.4C5.9,4.4,5.9,4.7,6,5
		C6,5,6,5.1,5.9,5.1C5.7,5.3,5.5,5.4,5.3,5.6c-0.1,0.1-0.1,0.1-0.2,0C4.9,5.5,4.6,5.3,4.3,5.1C4.2,5,4,5.1,3.9,5.2
		C3.5,5.9,3.1,6.6,2.7,7.3C2.6,7.5,2.6,7.6,2.8,7.7C3,7.8,3.3,8,3.6,8.2c0.1,0,0.1,0.1,0.1,0.1C3.6,8.6,3.5,8.8,3.5,9.1
		c0,0.1,0,0.1-0.1,0.1C3.1,9.3,2.8,9.4,2.5,9.5c-0.2,0-0.3,0.2-0.2,0.3c0.2,0.8,0.4,1.6,0.6,2.3c0,0.2,0.2,0.3,0.4,0.2
		c0.3-0.1,0.6-0.1,0.9-0.2c0.1,0,0.1,0,0.2,0.1c0.1,0.2,0.3,0.4,0.5,0.7c0,0.1,0.1,0.1,0,0.2c-0.2,0.3-0.3,0.5-0.5,0.8
		c-0.1,0.2-0.1,0.3,0.1,0.4c0.7,0.4,1.3,0.8,2,1.2c0.2,0.1,0.3,0.1,0.4-0.1c0.2-0.3,0.3-0.6,0.5-0.8c0.3,0,0.6,0.1,0.9,0.1
		c0.1,0,0.1,0.1,0.1,0.1c0.1,0.3,0.1,0.6,0.2,0.9c0,0.2,0.2,0.3,0.4,0.2c0.3-0.1,0.5-0.1,0.8-0.2C9.3,15.1,9,14.3,9,13.5z"/>
	<path fill-rule="evenodd" clip-rule="evenodd" fill="#6C5E52" d="M14.1,9.5c-2,0-3.7,1.6-3.7,3.7c0,2,1.6,3.7,3.7,3.7
		c2,0,3.7-1.6,3.7-3.7C17.8,11.1,16.1,9.5,14.1,9.5z M16.5,13.4c0,0.1-0.1,0.2-0.2,0.2h-1.7v1.7c0,0.1-0.1,0.2-0.2,0.2h-0.4
		c-0.1,0-0.2-0.1-0.2-0.2v-1.7h-1.7c-0.1,0-0.2-0.1-0.2-0.2V13c0-0.1,0.1-0.2,0.2-0.2h1.7V11c0-0.1,0.1-0.2,0.2-0.2h0.4
		c0.1,0,0.2,0.1,0.2,0.2v1.7h1.7c0.1,0,0.2,0.1,0.2,0.2V13.4z"/>
</g>
</svg>
