<?xml version="1.0" encoding="utf-8"?>
<!-- Generator: Adobe Illustrator 18.1.1, SVG Export Plug-In . SVG Version: 6.00 Build 0)  -->
<svg version="1.1" id="Icons" xmlns="http://www.w3.org/2000/svg" xmlns:xlink="http://www.w3.org/1999/xlink" x="0px" y="0px"
	 viewBox="0 0 22 22" enable-background="new 0 0 22 22" xml:space="preserve">
<g>
	<path fill-rule="evenodd" clip-rule="evenodd" fill="#F47821" d="M4.2,16.9v-13c0-0.2,0.2-0.1,0.4-0.1h7.7v1.9
		c0,0.1,0.1,0.6,0.2,0.6h2.2V12h0.8V3.9c0-0.7-0.5-0.9-1.2-0.9H4.6C3.9,3,3.4,3.2,3.4,3.9v13c0,0.7,0.5,1.6,1.2,1.6h3.7v-0.8H4.6
		C4.4,17.6,4.2,17.1,4.2,16.9z"/>
	<path fill-rule="evenodd" clip-rule="evenodd" fill="#F47821" d="M18.5,11.8c-0.1,0-0.2,0-0.2,0.1c-0.4,0.2-0.7,0.4-1,0.6
		c-1,0.7-2,1.4-3,2.2c-0.7,0.6-1.5,1.2-2.2,1.7c-0.1,0-0.1,0.1-0.2,0c-0.5-0.4-1-0.9-1.5-1.3c-0.3-0.2-0.6-0.4-0.9-0.5
		c-0.1,0-0.2-0.1-0.3,0c-0.1,0.1-0.1,0.2,0,0.3c0.1,0.3,0.2,0.6,0.4,0.9c0.4,0.9,0.9,1.7,1.5,2.5c0.2,0.3,0.5,0.5,0.9,0.5
		c0.4,0,0.6-0.1,0.9-0.3c0.5-0.5,1-1,1.5-1.5c1-1,2-2.1,2.9-3.2c0.5-0.5,1-1.1,1.4-1.7c0.1-0.1,0.1-0.2,0.2-0.3
		C18.6,11.9,18.6,11.8,18.5,11.8z"/>
	<path fill="#F47821" d="M8.7,10.5c-0.3-0.4-0.6-0.9-0.6-1.4c0-0.3,0-0.5,0-0.8c0.2-0.6,0.8-1,1.6-0.9c0.8,0.1,1.3,0.8,1.1,1.7
		c-0.1,0.5-0.3,1-0.6,1.4c0.2,0.1,0.4,0.2,0.5,0.2c0.3,0.1,0.5,0.3,0.8,0.4c0.4,0.2,0.6,0.5,0.6,1c0,0.3,0,0.5,0,0.8
		c-1.9,0-3.7,0-5.6,0c-0.2-0.8,0.1-1.5,0.8-1.9C8,10.8,8.3,10.7,8.7,10.5z"/>
</g>
</svg>
