<?xml version="1.0" encoding="utf-8"?>
<!-- Generator: Adobe Illustrator 18.1.1, SVG Export Plug-In . SVG Version: 6.00 Build 0)  -->
<svg version="1.1" id="Icons" xmlns="http://www.w3.org/2000/svg" xmlns:xlink="http://www.w3.org/1999/xlink" x="0px" y="0px"
	 viewBox="0 0 20 20" enable-background="new 0 0 20 20" xml:space="preserve">
<g>
	<path fill-rule="evenodd" clip-rule="evenodd" fill="#EFC32E" d="M13.3,10.3c-2.1,0-3.8,1.7-3.8,3.8c0,2.1,1.7,3.8,3.8,3.8
		c2.1,0,3.8-1.7,3.8-3.8C17.1,12,15.4,10.3,13.3,10.3z M15.8,14.4c0,0.1-0.1,0.2-0.2,0.2h-1.8v1.8c0,0.1-0.1,0.2-0.2,0.2h-0.4
		c-0.1,0-0.2-0.1-0.2-0.2v-1.8H11c-0.1,0-0.2-0.1-0.2-0.2V14c0-0.1,0.1-0.2,0.2-0.2h1.8v-1.8c0-0.1,0.1-0.2,0.2-0.2h0.4
		c0.1,0,0.2,0.1,0.2,0.2v1.8h1.8c0.1,0,0.2,0.1,0.2,0.2V14.4z"/>
	<rect x="5.2" y="11" fill-rule="evenodd" clip-rule="evenodd" fill="#EFC32E" width="1.6" height="0.8"/>
	<path fill-rule="evenodd" clip-rule="evenodd" fill="#EFC32E" d="M3.6,15.3V2.8c0-0.2,0.2-0.1,0.4-0.1h7.4v1.8
		c0,0.1,0.1,0.6,0.2,0.6h2.1V9h0.8V2.8C14.5,2.2,14,2,13.4,2H4C3.4,2,2.9,2.2,2.9,2.8v12.4c0,0.6,0.5,1.5,1.2,1.5h4.3V16H4
		C3.8,16,3.6,15.5,3.6,15.3z"/>
	<rect x="5.2" y="6.7" fill-rule="evenodd" clip-rule="evenodd" fill="#EFC32E" width="2.3" height="0.8"/>
	<rect x="5.2" y="9" fill-rule="evenodd" clip-rule="evenodd" fill="#EFC32E" width="4.7" height="0.8"/>
</g>
</svg>
