<?xml version="1.0" encoding="utf-8"?>
<!-- Generator: Adobe Illustrator 18.1.1, SVG Export Plug-In . SVG Version: 6.00 Build 0)  -->
<svg version="1.1" id="Icons" xmlns="http://www.w3.org/2000/svg" xmlns:xlink="http://www.w3.org/1999/xlink" x="0px" y="0px"
	 viewBox="0 0 20 20" enable-background="new 0 0 20 20" xml:space="preserve">
<g>
	<path fill-rule="evenodd" clip-rule="evenodd" fill="#E64D3C" d="M7.6,12.4c0,0.9,0,1.7,0,2.6c0,0.3,0,0.7-0.4,0.8
		c-0.4,0.2-0.8,0.2-1.1,0c-0.3-0.2-0.3-0.4-0.3-0.7c0-1,0-2,0-3c0-0.1,0-0.1,0-0.2c-0.8-0.1-1.5,0-2.3,0.2c-0.2,0-0.4,0.1-0.5,0.1
		c-0.5,0.1-0.9-0.2-0.9-0.8c0-0.7,0-1.4,0-2.1c0-0.3,0-0.6,0-0.9c0-0.6,0.4-0.9,0.9-0.8C3.9,7.8,4.8,8,5.7,7.9c0.1,0,0.3,0,0.4-0.1
		c3.6-1.2,7.1-2.4,10.7-3.6c0.7-0.3,1.1,0,1.1,0.8c0,3.2,0,6.5,0,9.7c0,0.7-0.4,1-1.1,0.8c-3-1-6-2-9-3C7.8,12.4,7.7,12.4,7.6,12.4z
		 M3.2,11c0.4-0.1,0.8-0.2,1.3-0.4c0.1,0,0.1-0.1,0.1-0.2c0-0.4,0-0.8,0-1.2c0-0.1-0.1-0.2-0.1-0.2C4.1,9,3.7,8.9,3.2,8.7
		C3.2,9.5,3.2,10.2,3.2,11z"/>
</g>
</svg>
