<?xml version="1.0" encoding="utf-8"?>
<!-- Generator: Adobe Illustrator 18.1.1, SVG Export Plug-In . SVG Version: 6.00 Build 0)  -->
<svg version="1.1" id="Icons" xmlns="http://www.w3.org/2000/svg" xmlns:xlink="http://www.w3.org/1999/xlink" x="0px" y="0px"
	 viewBox="0 0 22 22" enable-background="new 0 0 22 22" xml:space="preserve">
<g>
	<g>
		<g>
			<g>
				<g>
					<path fill="#5D5D5D" d="M9.9,11.5c0-0.1,0-0.2,0-0.2c0-0.1-0.1-0.1-0.1-0.2c0,0-0.1-0.1-0.2-0.1c-0.1,0-0.2-0.1-0.3-0.1
						c-0.2-0.1-0.4-0.2-0.6-0.3c-0.2-0.1-0.3-0.2-0.5-0.3C8.2,10.2,8.1,10,8,9.9C8,9.7,7.9,9.5,7.9,9.3C7.9,9.1,8,9,8,8.8
						c0.1-0.2,0.2-0.3,0.3-0.4c0.1-0.1,0.3-0.2,0.4-0.3C8.9,8.1,9.1,8,9.3,8V7.4h0.5V8c0.2,0,0.4,0.1,0.5,0.2
						c0.2,0.1,0.3,0.2,0.4,0.3c0.1,0.1,0.2,0.3,0.3,0.4C11,9.1,11,9.3,11,9.5H9.9c0-0.1,0-0.2,0-0.3C9.9,9.1,9.9,9,9.8,9
						c0-0.1-0.1-0.1-0.2-0.1c-0.1,0-0.1,0-0.2,0c-0.1,0-0.1,0-0.2,0C9.2,8.9,9.2,8.9,9.1,9c0,0-0.1,0.1-0.1,0.2c0,0.1,0,0.1,0,0.2
						c0,0.1,0,0.1,0,0.2c0,0.1,0,0.1,0.1,0.2c0,0,0.1,0.1,0.2,0.1c0.1,0,0.2,0.1,0.3,0.1c0.2,0.1,0.4,0.2,0.6,0.3
						c0.2,0.1,0.3,0.2,0.5,0.3c0.1,0.1,0.2,0.2,0.3,0.4c0.1,0.2,0.1,0.3,0.1,0.6c0,0.2,0,0.4-0.1,0.5c-0.1,0.1-0.1,0.3-0.3,0.4
						c-0.1,0.1-0.2,0.2-0.4,0.3c-0.2,0.1-0.3,0.1-0.5,0.1v0.6H9.2v-0.6c-0.2,0-0.4-0.1-0.5-0.1c-0.2-0.1-0.3-0.2-0.5-0.3
						c-0.1-0.1-0.2-0.3-0.3-0.5c-0.1-0.2-0.1-0.4-0.1-0.7h1.1c0,0.1,0,0.3,0.1,0.4c0,0.1,0.1,0.2,0.1,0.2c0.1,0.1,0.1,0.1,0.2,0.1
						s0.2,0,0.2,0s0.2,0,0.2,0c0.1,0,0.1-0.1,0.1-0.1c0,0,0.1-0.1,0.1-0.2C9.9,11.6,9.9,11.6,9.9,11.5z"/>
				</g>
			</g>
		</g>
	</g>
	<g>
		<path fill-rule="evenodd" clip-rule="evenodd" fill="#5D5D5D" d="M4.3,16.8V3.9c0-0.2,0.2-0.1,0.4-0.1h7.7v1.8
			c0,0.1,0.1,0.6,0.2,0.6h2.2v2.4h0.8V3.9C15.6,3.2,15,3,14.4,3H4.7C4,3,3.5,3.2,3.5,3.9v12.9c0,0.7,0.5,1.5,1.2,1.5h2.8v-0.8H4.7
			C4.5,17.5,4.3,17,4.3,16.8z"/>
		<path fill-rule="evenodd" clip-rule="evenodd" fill="#5D5D5D" d="M18.5,10.6c-0.2-0.8-0.8-1.4-1.6-1.6c-0.7-0.1-1.3,0.2-1.8,0.6
			c1,1,1.9,1.9,2.9,2.9C18.4,12.2,18.6,11.3,18.5,10.6z"/>
		<path fill-rule="evenodd" clip-rule="evenodd" fill="#5D5D5D" d="M14.3,10.4c-1.5,1.5-3.1,3.1-4.6,4.6c-0.2,0.2-0.4,0.5-0.5,0.8
			c-0.3,0.8-0.5,1.6-0.6,2.5c-0.1,0.4,0.3,0.8,0.7,0.7c0.9-0.2,1.9-0.4,2.7-0.7c0.2-0.1,0.4-0.2,0.5-0.3c1.6-1.6,3.2-3.2,4.7-4.8
			c0,0,0.1-0.1,0.1-0.1c-0.9-0.9-1.9-1.9-2.9-2.9C14.4,10.3,14.4,10.3,14.3,10.4z M11.5,17.6c-0.5,0.1-1,0.3-1.5,0.4
			c-0.3,0.1-0.6-0.2-0.5-0.5c0.1-0.6,0.2-1.2,0.5-1.8c0-0.1,0.1-0.1,0.1-0.1c0.6,0.6,1.2,1.2,1.9,1.9C11.8,17.5,11.7,17.6,11.5,17.6
			z"/>
	</g>
</g>
</svg>
