<?xml version="1.0" encoding="utf-8"?>
<!-- Generator: Adobe Illustrator 18.1.1, SVG Export Plug-In . SVG Version: 6.00 Build 0)  -->
<svg version="1.1" id="Icons" xmlns="http://www.w3.org/2000/svg" xmlns:xlink="http://www.w3.org/1999/xlink" x="0px" y="0px"
	 viewBox="0 0 22 22" enable-background="new 0 0 22 22" xml:space="preserve">
<g>
	<g>
		<path fill="#F47821" d="M10.3,16c-0.2,0.2-0.3,0.3-0.5,0.5c0,0-0.1,0.1-0.2,0.1c0,0-0.1-0.1-0.1-0.1c-0.5-0.5-1-0.9-1.4-1.4
			c-0.3-0.3-0.5-0.3-0.8,0c-0.5,0.4-0.9,0.9-1.4,1.3c0,0-0.1,0.1-0.1,0.1c-0.3-0.3-0.7-0.6-1-1c0,0,0-0.1,0-0.2c0-2.3,0-4.6,0-7
			c0-1.2,0-2.4,0-3.6c0-0.4,0.2-0.7,0.5-0.8c0.3-0.2,0.7-0.1,1,0.1C6.5,4.4,6.6,4.7,6.5,5C6.4,5.4,6.2,5.6,5.8,5.7
			c-0.1,0-0.2,0-0.3,0C5.3,5.8,5.1,6,5.1,6.2c0,0.3,0.1,0.5,0.4,0.5c0.1,0,0.2,0,0.3,0c2.8,0,5.7,0,8.5,0c0.2,0,0.2,0,0.2,0.2
			c0,0.7,0,0.6,0,1.3c0.2,0,0.3,0,0.5,0c0.2,0,0.3,0,0.5,0c0-0.7,0-0.6,0-1.4c0-0.2,0-0.2,0.2-0.3C16.6,6.3,17,5.5,17,4.7
			C16.9,3.7,16.1,3,15,3c-3.1,0-6.3,0-9.4,0C5.3,3,5,3.1,4.7,3.3C4,3.6,3.7,4.2,3.7,5c0,1.2,0,2.4,0,3.7c0,2.4,0,4.7,0,7.1
			c0,0.2,0,0.4,0.2,0.5c0.5,0.5,1,0.9,1.5,1.4c0.2,0.2,0.5,0.2,0.8,0c0.3-0.3,0.6-0.6,0.9-0.9c0.2-0.2,0.4-0.4,0.6-0.6
			c0.1,0.1,0.1,0.1,0.2,0.1c0.5,0.5,0.9,0.9,1.4,1.4c0.3,0.3,0.5,0.3,0.8,0c0.2-0.2,0.5-0.5,0.7-0.7C10.6,16.7,10.4,16.4,10.3,16z
			 M7.5,4c2.5,0,5,0,7.5,0c0.5,0,0.8,0.3,0.9,0.7c0.2,0.6-0.3,1.1-0.9,1.1c-1.1,0-2.3,0-3.4,0c-1.3,0-2.7,0-4,0c-0.1,0-0.2,0-0.3,0
			c0.3-1,0.2-0.9,0-1.7C7.4,4,7.4,4,7.5,4z"/>
		<rect x="6.1" y="8.2" fill-rule="evenodd" clip-rule="evenodd" fill="#F47821" width="2.3" height="0.8"/>
		<rect x="6.1" y="12.7" fill-rule="evenodd" clip-rule="evenodd" fill="#F47821" width="3" height="0.8"/>
		<rect x="6.1" y="10.5" fill-rule="evenodd" clip-rule="evenodd" fill="#F47821" width="4.3" height="0.8"/>
	</g>
	<path fill="#F47821" d="M14.9,19c-0.8-0.9-1.6-1.7-2.2-2.8c-0.4-0.7-0.8-1.5-1.1-2.3c-0.2-0.9-0.2-1.7,0.2-2.5
		c0.6-1.1,1.5-1.8,2.8-1.9c1.8-0.2,3.3,1.1,3.6,2.8c0.1,0.7,0,1.3-0.2,2c-0.3,1-0.8,1.8-1.3,2.6c-0.3,0.4-0.6,0.8-1,1.2
		c-0.2,0.3-0.5,0.5-0.7,0.8C15,18.9,14.9,19,14.9,19z M16.4,12.8c0-0.8-0.7-1.5-1.5-1.5c-0.8,0-1.5,0.7-1.5,1.5
		c0,0.9,0.7,1.5,1.5,1.5C15.7,14.4,16.4,13.7,16.4,12.8z"/>
</g>
</svg>
