<?xml version="1.0" encoding="utf-8"?>
<!-- Generator: Adobe Illustrator 18.1.1, SVG Export Plug-In . SVG Version: 6.00 Build 0)  -->
<svg version="1.1" id="Icons" xmlns="http://www.w3.org/2000/svg" xmlns:xlink="http://www.w3.org/1999/xlink" x="0px" y="0px"
	 viewBox="0 0 20 20" enable-background="new 0 0 20 20" xml:space="preserve">
<g>
	<path fill-rule="evenodd" clip-rule="evenodd" fill="#6C5E52" d="M13.7,9.8c-2.1,0-3.9,1.7-3.9,3.8c0,2.1,1.7,3.9,3.9,3.9
		c2.1,0,3.9-1.7,3.9-3.9C17.6,11.5,15.8,9.8,13.7,9.8z M16.2,13.9c0,0.1-0.1,0.2-0.2,0.2h-1.8v1.8c0,0.1-0.1,0.2-0.2,0.2h-0.4
		c-0.1,0-0.2-0.1-0.2-0.2v-1.8h-1.8c-0.1,0-0.3-0.1-0.3-0.2v-0.4c0-0.1,0.1-0.2,0.3-0.2h1.8v-1.8c0-0.1,0.1-0.2,0.2-0.2h0.4
		c0.1,0,0.2,0.1,0.2,0.2v1.8H16c0.1,0,0.2,0.1,0.2,0.2V13.9z"/>
	<path fill="#6C5E52" d="M9,15.5c-0.2,0.2-0.3,0.3-0.5,0.5c0,0-0.1,0.1-0.2,0.1c0,0-0.1-0.1-0.1-0.1c-0.5-0.5-1-0.9-1.4-1.4
		c-0.3-0.3-0.5-0.3-0.8,0C5.5,15,5,15.5,4.6,15.9c0,0-0.1,0.1-0.1,0.1c-0.3-0.3-0.7-0.6-1-1c0,0,0-0.1,0-0.2c0-2.3,0-4.6,0-6.9
		c0-1.2,0-2.4,0-3.5c0-0.4,0.2-0.7,0.5-0.8c0.3-0.2,0.7-0.1,1,0.1c0.3,0.2,0.4,0.5,0.3,0.8C5.1,4.9,4.9,5.1,4.5,5.2
		c-0.1,0-0.2,0-0.3,0C4,5.3,3.8,5.4,3.8,5.7c0,0.3,0.1,0.5,0.4,0.5c0.1,0,0.2,0,0.3,0c2.8,0,5.7,0,8.5,0c0.2,0,0.2,0,0.2,0.2
		c0,0.7,0,1.4,0,2.1c0.2,0,0.3,0,0.5,0c0.2,0,0.3,0,0.5,0c0-0.7,0-1.5,0-2.2c0-0.2,0-0.2,0.2-0.3c0.8-0.3,1.3-1.1,1.2-1.9
		c-0.1-1-0.9-1.7-1.9-1.7c-3.1,0-6.2,0-9.4,0c-0.3,0-0.7,0.1-1,0.3c-0.6,0.4-0.9,1-0.9,1.7c0,1.2,0,2.4,0,3.6c0,2.4,0,4.7,0,7.1
		c0,0.2,0,0.4,0.2,0.5c0.5,0.5,1,0.9,1.5,1.4c0.2,0.2,0.5,0.2,0.8,0c0.3-0.3,0.6-0.6,0.9-0.9c0.2-0.2,0.4-0.4,0.6-0.6
		c0.1,0.1,0.1,0.1,0.2,0.1c0.5,0.5,0.9,0.9,1.4,1.4c0.3,0.3,0.5,0.3,0.8,0c0.2-0.2,0.5-0.5,0.7-0.7C9.3,16.1,9.1,15.8,9,15.5z
		 M6.2,3.5c2.5,0,5,0,7.5,0c0.5,0,0.8,0.3,0.9,0.7c0.2,0.6-0.3,1.1-0.9,1.1c-1.1,0-2.3,0-3.4,0c-1.3,0-2.6,0-4,0c-0.1,0-0.2,0-0.3,0
		c0.3-1,0.2-0.9,0-1.7C6.1,3.5,6.1,3.5,6.2,3.5z"/>
	<rect x="4.8" y="7.7" fill-rule="evenodd" clip-rule="evenodd" fill="#6C5E52" width="2.3" height="0.8"/>
	<rect x="4.8" y="12.2" fill-rule="evenodd" clip-rule="evenodd" fill="#6C5E52" width="3" height="0.8"/>
	<rect x="4.8" y="9.9" fill-rule="evenodd" clip-rule="evenodd" fill="#6C5E52" width="4.5" height="0.8"/>
</g>
</svg>
