<?xml version="1.0" encoding="utf-8"?>
<!-- Generator: Adobe Illustrator 18.1.1, SVG Export Plug-In . SVG Version: 6.00 Build 0)  -->
<svg version="1.1" id="Icons" xmlns="http://www.w3.org/2000/svg" xmlns:xlink="http://www.w3.org/1999/xlink" x="0px" y="0px"
	 viewBox="0 0 22 22" enable-background="new 0 0 22 22" xml:space="preserve">
<g>
	<path fill-rule="evenodd" clip-rule="evenodd" fill="#F47821" d="M4.2,17V3.9c0-0.2,0.2-0.1,0.4-0.1h7.8v1.9c0,0.1,0.1,0.6,0.2,0.6
		h2.2v3.3h0.8V3.9c0-0.7-0.5-0.9-1.2-0.9H4.6C3.9,3,3.4,3.2,3.4,3.9V17c0,0.7,0.5,1.6,1.2,1.6h3.7v-0.8H4.6
		C4.4,17.7,4.2,17.2,4.2,17z"/>
	<rect x="5.8" y="7.9" fill-rule="evenodd" clip-rule="evenodd" fill="#F47821" width="4.9" height="0.8"/>
	<rect x="5.8" y="12.8" fill-rule="evenodd" clip-rule="evenodd" fill="#F47821" width="2.5" height="0.8"/>
	<rect x="5.8" y="10.4" fill-rule="evenodd" clip-rule="evenodd" fill="#F47821" width="4.1" height="0.8"/>
	<path fill-rule="evenodd" clip-rule="evenodd" fill="#F47821" d="M18.3,10.7c-1.1,0-2.2,0-3.3,0v0c-0.5,0-0.9,0-1.4,0
		c-0.7,0-1.3,0-2,0c-0.2,0-0.3,0.1-0.3,0.3c0,0.2,0,0.4,0,0.6c0,0.2,0.2,0.3,0.3,0.2c0.4-0.1,0.8-0.2,1.2-0.2c0.6,0,1.1,0.1,1.6,0.3
		c0,0,0.1,0,0.1,0c1.3,0,2.6,0,3.9,0c0.2,0,0.3-0.1,0.3-0.3c0-0.2,0-0.3,0-0.5C18.6,10.8,18.5,10.7,18.3,10.7z"/>
	<path fill-rule="evenodd" clip-rule="evenodd" fill="#F47821" d="M18.6,12.4c0-0.1-0.1-0.2-0.3-0.2c-0.9,0-1.7,0-2.6,0
		c-0.3,0-0.5,0-0.8,0c0.5,0.3,0.8,0.7,1.2,1.1c0,0,0.1,0,0.1,0c0.7,0,1.4,0,2.1,0c0.2,0,0.3-0.1,0.3-0.3
		C18.6,12.8,18.6,12.6,18.6,12.4C18.6,12.4,18.6,12.4,18.6,12.4z"/>
	<path fill-rule="evenodd" clip-rule="evenodd" fill="#F47821" d="M18.3,17.9c-0.7,0-1.3,0-2,0c-0.1,0-0.1,0-0.1,0.1
		c-0.2,0.2-0.4,0.5-0.6,0.7c-0.2,0.1-0.3,0.3-0.5,0.4c1.1,0,2.2,0,3.3,0c0.2,0,0.3-0.1,0.3-0.3c0-0.2,0-0.3,0-0.5
		C18.6,18,18.5,17.9,18.3,17.9z"/>
	<path fill-rule="evenodd" clip-rule="evenodd" fill="#F47821" d="M18.6,17.3c0-0.2,0-0.4,0-0.6c0-0.2-0.1-0.3-0.3-0.3
		c-0.5,0-1,0-1.5,0c0,0-0.1,0-0.1,0.1c0,0.2-0.1,0.4-0.2,0.5c-0.1,0.2-0.2,0.3-0.2,0.5c0,0,0,0,0,0c0.6,0,1.3,0,1.9,0
		C18.5,17.6,18.6,17.5,18.6,17.3z"/>
	<path fill-rule="evenodd" clip-rule="evenodd" fill="#F47821" d="M18.3,13.6c-0.5,0-1,0-1.4,0c-0.2,0-0.3,0-0.5,0c0,0,0,0.1,0,0.1
		c0.2,0.3,0.3,0.6,0.4,1c0,0.1,0,0.1,0.1,0.1c0.5,0,1,0,1.4,0c0.2,0,0.3-0.1,0.3-0.3c0-0.2,0-0.3,0-0.5
		C18.6,13.7,18.5,13.6,18.3,13.6z"/>
	<path fill-rule="evenodd" clip-rule="evenodd" fill="#F47821" d="M18.3,15c-0.5,0-0.9,0-1.4,0c-0.1,0-0.1,0-0.1,0.1
		c0,0.1,0,0.2,0,0.3c0,0.2,0,0.4,0,0.6c0,0.1,0,0.1,0.1,0.1c0.2,0,0.4,0,0.7,0c0.2,0,0.5,0,0.7,0c0.2,0,0.3-0.1,0.3-0.3
		c0-0.2,0-0.4,0-0.5C18.6,15.1,18.5,15,18.3,15z"/>
	<path fill-rule="evenodd" clip-rule="evenodd" fill="#F47821" d="M16.3,15.5c0-1.8-1.5-3.4-3.4-3.4c-1.9,0-3.4,1.5-3.4,3.4
		c0,1.9,1.5,3.4,3.4,3.4C14.8,19,16.4,17.5,16.3,15.5z M13.6,17.4c-0.2,0-0.2,0-0.2,0.3c0,0.1,0,0.1,0,0.2c0,0.1-0.1,0.2-0.2,0.2
		c-0.2,0-0.3,0-0.5,0c-0.1,0-0.2-0.1-0.2-0.2c0-0.1,0-0.2,0-0.3c0-0.1,0-0.1-0.1-0.1c-0.3-0.1-0.6-0.2-0.8-0.4
		c-0.2-0.2-0.3-0.4-0.3-0.6c0-0.1,0-0.1,0.1-0.1c0.1,0,0.2,0,0.4,0c0.1,0,0.2,0,0.4,0c0,0,0.1,0,0.1,0.1c0.2,0.4,0.7,0.5,1.1,0.3
		c0.1,0,0.2-0.1,0.2-0.3c0-0.1,0-0.3-0.2-0.3c-0.1-0.1-0.3-0.1-0.4-0.1c-0.3-0.1-0.6-0.1-0.8-0.2c-0.7-0.2-0.8-1-0.5-1.5
		c0.2-0.3,0.4-0.4,0.8-0.5c0.1,0,0.1-0.1,0.1-0.1c0-0.1,0-0.2,0-0.3c0-0.1,0.1-0.2,0.2-0.2c0.2,0,0.3,0,0.5,0c0.1,0,0.2,0.1,0.2,0.2
		c0,0.1,0,0.2,0,0.3c0,0.1,0,0.1,0.1,0.1c0.3,0.1,0.5,0.2,0.7,0.3c0.2,0.1,0.3,0.3,0.3,0.5c0,0.1,0,0.1-0.1,0.1c-0.2,0-0.4,0-0.6,0
		c0,0-0.1,0-0.1-0.1c-0.2-0.3-0.6-0.4-0.9-0.3c-0.2,0-0.2,0.2-0.2,0.3c0,0.1,0.1,0.3,0.2,0.3c0.2,0.1,0.4,0.1,0.6,0.1
		c0.3,0.1,0.5,0.1,0.8,0.2c0.3,0.1,0.5,0.4,0.6,0.8C14.7,16.9,14.1,17.3,13.6,17.4z"/>
</g>
</svg>
